<svg width="70" height="70" viewBox="0 0 70 70" fill="none" xmlns="http://www.w3.org/2000/svg">
<g clip-path="url(#clip0_1631_86)">
<path d="M46.9564 32.7109C46.9564 32.7109 46.8294 34.5102 44.2539 35.1814C46.8264 35.853 46.9564 37.6523 46.9564 37.6523C47.3159 35.3437 49.6586 35.1814 49.6586 35.1814C49.6586 35.1814 47.3159 35.0195 46.9564 32.7109Z" fill="white"/>
<path d="M67.1762 21.5723C66.6906 24.4824 66.1948 27.5705 63.9321 29.3673C63.0275 30.0858 61.9197 30.5107 61.0126 31.228C58.2509 33.4108 58.1021 37.4445 57.9522 40.9588C57.8025 44.4731 56.9808 48.6244 53.746 50.0014C49.8119 51.6834 44.3665 48.2139 41.3602 51.2593C38.523 54.1332 41.3896 59.5622 39.0064 62.8239C38.2151 63.9054 36.9688 64.5439 35.7693 65.1437C33.7545 66.1507 31.5506 67.1546 29.3379 67.742C31.6807 68.2516 34.0714 68.509 36.469 68.51C54.9788 68.51 69.9833 53.5054 69.9833 34.996C69.9864 30.3754 69.0306 25.8044 67.1762 21.5723Z" fill="#EA5251"/>
<path d="M36.4714 1.49023C17.9616 1.49023 2.95703 16.4947 2.95703 35.0046C2.95703 51.0662 14.2585 64.4817 29.3412 67.7508C31.554 67.1605 33.7564 66.1561 35.7728 65.1521C36.9713 64.5494 38.2175 63.9114 39.0084 62.8292C41.3921 59.5685 38.5251 54.1386 41.3629 51.2649C44.3686 48.2195 49.813 51.6888 53.7481 50.007C56.9828 48.6249 57.8069 44.4746 57.9548 40.9643C58.1022 37.4545 58.2528 33.4109 61.0146 31.2336C61.9219 30.5184 63.0301 30.0905 63.934 29.3733C66.1967 27.5759 66.6927 24.4878 67.1782 21.5778C61.9986 9.75241 50.2038 1.49023 36.4714 1.49023ZM47.8053 35.5222C47.6127 39.7873 45.0403 43.5825 41.1501 45.3413C37.2596 47.1005 32.7111 46.5245 29.3817 43.8518C25.8243 41.8418 23.6248 38.072 23.6253 33.9859C23.6228 29.6222 26.1246 25.6449 30.0587 23.7576C33.993 21.8707 38.6609 22.4094 42.0624 25.1429C45.778 27.2449 47.9981 31.2569 47.8053 35.5222Z" fill="#5C1612"/>
<path d="M25.1285 35.0034C25.123 30.9653 27.267 27.2293 30.7566 25.1972C34.2456 23.1652 38.553 23.144 42.0625 25.1416C38.733 22.4688 34.1841 21.8929 30.294 23.6521C26.404 25.4107 23.8314 29.206 23.6385 33.4712C23.4461 37.7363 25.6658 41.7484 29.3819 43.8505C28.054 42.7899 26.9821 41.4438 26.2458 39.9122C25.5095 38.3806 25.1276 36.7028 25.1285 35.0034ZM67.1775 21.5723C66.9693 22.8432 66.7427 24.1425 66.3814 25.3585C67.1556 28.1687 67.5481 31.0704 67.5483 33.9854C67.5428 51.9226 53.006 66.4647 35.0671 66.4647C34.4039 66.4647 33.7463 66.4385 33.0926 66.3994C31.8766 66.9413 30.6223 67.3928 29.34 67.7504C31.683 68.2599 34.0738 68.5175 36.4716 68.5186C54.9811 68.5186 69.9856 53.5137 69.9856 35.0042C69.9896 30.3808 69.0333 25.8069 67.1775 21.5723Z" fill="#A64342"/>
<path d="M66.3799 25.3599C66.7423 24.1438 66.9646 22.8446 67.1761 21.5736C61.9973 9.75241 50.2025 1.49023 36.4701 1.49023C36.1334 1.49023 35.8008 1.50594 35.4658 1.51631C50.2398 1.69471 62.6335 11.7332 66.3799 25.3599ZM4.28516 44.3508C7.68399 56.07 17.3048 65.1388 29.3346 67.7516C30.6168 67.3941 31.8709 66.9425 33.0867 66.4007C19.6453 65.594 8.41137 56.6084 4.28516 44.3508Z" fill="#A64342"/>
<path d="M50.3302 44.7145C50.2049 44.6159 50.1236 44.4718 50.1041 44.3135C50.0847 44.1552 50.1286 43.9957 50.2263 43.8697L52.1856 41.3655C52.2842 41.24 52.4284 41.1587 52.5868 41.1393C52.7451 41.1198 52.9047 41.1638 53.0307 41.2617C53.1562 41.3602 53.2375 41.5045 53.2569 41.6628C53.2764 41.8212 53.2324 41.9808 53.1345 42.1068L51.1743 44.6105C51.0758 44.7357 50.9318 44.8168 50.7737 44.8363C50.6156 44.8558 50.4562 44.812 50.3302 44.7145Z" fill="#F1E289"/>
<path d="M32.8442 57.2241C32.6848 57.2234 32.532 57.1598 32.4193 57.047C32.3065 56.9342 32.2429 56.7815 32.2422 56.6221V53.4374C32.2428 53.2779 32.3064 53.1252 32.4192 53.0125C32.532 52.8999 32.6848 52.8364 32.8442 52.8359C33.0036 52.8365 33.1564 52.9 33.2691 53.0126C33.3819 53.1253 33.4455 53.278 33.4462 53.4374V56.6172C33.4467 56.7775 33.3837 56.9314 33.2709 57.0452C33.1579 57.1589 33.0045 57.2232 32.8442 57.2241Z" fill="#BBDBA0"/>
<path d="M50.7812 20.9866C50.7699 21.1455 50.6962 21.2934 50.5762 21.3981C50.4563 21.5029 50.2997 21.5559 50.1408 21.5456L46.9683 21.3306C46.8093 21.3191 46.6613 21.2452 46.5566 21.125C46.4519 21.0048 46.399 20.8481 46.4095 20.689C46.4207 20.5302 46.4943 20.3822 46.6142 20.2775C46.7342 20.1728 46.8907 20.1198 47.0496 20.1302L50.2219 20.345C50.381 20.3563 50.5292 20.4301 50.634 20.5503C50.7388 20.6706 50.7917 20.8274 50.7812 20.9866Z" fill="#F1E289"/>
<path d="M39.7391 12.9057C39.59 12.9617 39.4247 12.9564 39.2795 12.891C39.1343 12.8255 39.0209 12.7053 38.964 12.5565L37.8373 9.58162C37.7813 9.43248 37.7866 9.26727 37.8519 9.12201C37.9173 8.97674 38.0374 8.86318 38.1861 8.8061C38.3353 8.75006 38.5006 8.75534 38.6459 8.82079C38.7912 8.88625 38.9047 9.00655 38.9616 9.15541L40.0875 12.129C40.1436 12.2782 40.1384 12.4436 40.0732 12.5891C40.0079 12.7345 39.8878 12.8483 39.7391 12.9057ZM55.4517 30.1824C55.4817 30.3389 55.4485 30.501 55.3592 30.633C55.27 30.7651 55.132 30.8564 54.9756 30.8869L51.8578 31.492C51.7013 31.5216 51.5394 31.4882 51.4073 31.3991C51.2753 31.3099 51.1839 31.1722 51.1529 31.0159C51.123 30.8594 51.1564 30.6974 51.2456 30.5654C51.3348 30.4334 51.4726 30.3421 51.629 30.3114L54.7473 29.7063C54.9038 29.6764 55.0658 29.7097 55.1978 29.7989C55.3298 29.8881 55.4211 30.026 55.4517 30.1824Z" fill="#BC66A5"/>
<path d="M59.6661 21.804C59.5473 21.9101 59.3915 21.9651 59.2325 21.9569C59.0735 21.9487 58.9242 21.8781 58.8169 21.7604L56.6873 19.3996C56.5809 19.281 56.5258 19.1251 56.534 18.966C56.5422 18.8069 56.613 18.6575 56.731 18.5505C56.8496 18.4441 57.0055 18.389 57.1646 18.3973C57.3238 18.4055 57.4731 18.4764 57.5801 18.5945L59.7099 20.9494C59.7634 21.0083 59.8046 21.0771 59.8313 21.1521C59.858 21.227 59.8696 21.3064 59.8654 21.3859C59.8614 21.4653 59.8417 21.5431 59.8075 21.6148C59.7732 21.6866 59.7252 21.7509 59.6661 21.804Z" fill="#A2C7E8"/>
<path d="M14.2993 30.6001C14.1397 30.5999 13.9868 30.5364 13.8739 30.4235C13.7611 30.3107 13.6976 30.1578 13.6973 29.9982V26.8187C13.6977 26.6592 13.7613 26.5063 13.8741 26.3935C13.9869 26.2807 14.1398 26.2172 14.2993 26.2168C14.4587 26.2175 14.6115 26.2811 14.7242 26.3938C14.8369 26.5066 14.9006 26.6593 14.9012 26.8187V29.9982C14.9007 30.1577 14.8371 30.3105 14.7243 30.4232C14.6116 30.536 14.4588 30.5996 14.2993 30.6001Z" fill="#F1E289"/>
<path d="M14.0781 39.7035C14.0671 39.8624 13.9935 40.0105 13.8735 40.1153C13.7535 40.2201 13.5969 40.2731 13.4379 40.2628L10.2657 40.0477C10.1066 40.0365 9.95844 39.9627 9.85361 39.8425C9.74878 39.7223 9.69585 39.5654 9.7064 39.4063C9.71759 39.2474 9.79121 39.0994 9.91116 38.9946C10.0311 38.8898 10.1877 38.8367 10.3466 38.847L13.5187 39.0623C13.6778 39.0735 13.826 39.1472 13.9308 39.2673C14.0357 39.3875 14.0887 39.5443 14.0781 39.7035Z" fill="#BBDBA0"/>
<path d="M20.9921 20.5246C21.1052 20.4125 21.2581 20.3496 21.4174 20.3496C21.5766 20.3496 21.7295 20.4125 21.8426 20.5246L24.0951 22.7728C24.2075 22.8859 24.2707 23.0388 24.2707 23.1983C24.2707 23.3578 24.2075 23.5107 24.0951 23.6238C23.9819 23.7359 23.829 23.7988 23.6697 23.7988C23.5104 23.7988 23.3576 23.7359 23.2444 23.6238L20.9922 21.3755C20.8796 21.2625 20.8164 21.1095 20.8164 20.95C20.8164 20.7906 20.8796 20.6376 20.9921 20.5246Z" fill="#A2C7E8"/>
<path d="M22.3689 13.3487C22.2896 13.2102 22.2684 13.0461 22.3097 12.892C22.3511 12.738 22.4517 12.6065 22.5897 12.5264L25.3429 10.9372C25.4813 10.858 25.6454 10.8367 25.7995 10.8781C25.9535 10.9195 26.0849 11.0201 26.165 11.158C26.2442 11.2963 26.2655 11.4604 26.2243 11.6143C26.183 11.7683 26.0825 11.8997 25.9447 11.9798L23.191 13.5705C23.0524 13.6494 22.8883 13.6704 22.7343 13.6289C22.5803 13.5873 22.449 13.4866 22.3689 13.3487Z" fill="#BBDBA0"/>
<path d="M17.1185 47.2155C17.0527 47.0707 17.0467 46.9056 17.1019 46.7564C17.1572 46.6071 17.2691 46.4857 17.4133 46.4185L20.3031 45.0913C20.448 45.0254 20.6131 45.0194 20.7624 45.0746C20.9117 45.1298 21.0332 45.2418 21.1003 45.3861C21.1665 45.5313 21.1725 45.6967 21.1172 45.8462C21.0619 45.9958 20.9496 46.1175 20.805 46.1846L17.9156 47.5118C17.7705 47.5775 17.6054 47.5833 17.4561 47.5278C17.3068 47.4723 17.1854 47.3601 17.1185 47.2155Z" fill="#B94C97"/>
<path d="M34.8116 69.6229C15.6251 69.6229 0.015625 54.0136 0.015625 34.8271C0.015625 30.13 0.935675 25.573 2.75021 21.2828C2.78388 21.2031 2.83292 21.1308 2.89454 21.0701C2.95615 21.0094 3.02912 20.9614 3.10929 20.9288C3.18946 20.8963 3.27525 20.8799 3.36177 20.8805C3.44828 20.8812 3.53382 20.8989 3.6135 20.9326C3.7744 21.0007 3.90168 21.1299 3.96736 21.2918C4.03304 21.4537 4.03173 21.635 3.96374 21.796C2.21828 25.9229 1.33313 30.3073 1.33313 34.8271C1.33313 53.2871 16.3515 68.3054 34.8116 68.3054C53.2716 68.3054 68.2899 53.2871 68.2899 34.8271C68.2899 16.367 53.2716 1.34866 34.8116 1.34866C27.0233 1.34866 19.4384 4.08181 13.4541 9.04471C13.3196 9.15624 13.1464 9.20978 12.9724 9.19355C12.7985 9.17732 12.6381 9.09266 12.5266 8.95818C12.415 8.82371 12.3615 8.65043 12.3777 8.47649C12.394 8.30254 12.4786 8.14216 12.6131 8.03064C18.8332 2.87218 26.7168 0.03125 34.8115 0.03125C53.998 0.03125 69.6073 15.6407 69.6073 34.8272C69.6074 54.0135 53.9981 69.6229 34.8116 69.6229Z" fill="black"/>
<path d="M5.55665 17.8819C5.43997 17.8818 5.32542 17.8507 5.2247 17.7918C5.12398 17.7329 5.0407 17.6484 4.98339 17.5467C4.92608 17.4451 4.89679 17.3301 4.89851 17.2134C4.90023 17.0968 4.93291 16.9827 4.9932 16.8828C6.22283 14.8451 7.65723 12.9382 9.2741 11.1918C9.33285 11.1283 9.40354 11.077 9.48212 11.0408C9.56071 11.0046 9.64565 10.9843 9.73209 10.981C9.81854 10.9776 9.90479 10.9914 9.98593 11.0214C10.0671 11.0514 10.1415 11.0971 10.2049 11.1559C10.2684 11.2147 10.3197 11.2854 10.3559 11.364C10.392 11.4426 10.4124 11.5275 10.4157 11.6139C10.419 11.7004 10.4053 11.7866 10.3753 11.8678C10.3453 11.9489 10.2995 12.0233 10.2408 12.0868C8.68497 13.7674 7.30472 15.6023 6.12142 17.5631C6.0628 17.6605 5.97997 17.741 5.881 17.7969C5.78203 17.8527 5.67029 17.882 5.55665 17.8819Z" fill="black"/>
<path d="M12.6503 18.0633C12.5061 18.0634 12.3658 18.0159 12.2513 17.9282C12.1825 17.8757 12.1248 17.8102 12.0813 17.7354C12.0379 17.6606 12.0096 17.578 11.998 17.4922C11.9865 17.4065 11.992 17.3193 12.0142 17.2357C12.0364 17.1521 12.0748 17.0737 12.1273 17.0049C14.6265 13.7296 17.6534 10.9469 21.1238 8.73414C21.271 8.64023 21.4496 8.60868 21.6201 8.64642C21.7907 8.68416 21.9393 8.7881 22.0332 8.93539C22.1271 9.08267 22.1586 9.26123 22.1209 9.43178C22.0832 9.60233 21.9792 9.7509 21.8319 9.84481C18.4925 11.9743 15.5797 14.6521 13.1746 17.8041C13.1131 17.8848 13.0338 17.9502 12.9428 17.9951C12.8519 18.0401 12.7518 18.0634 12.6503 18.0633ZM43.973 46.9007C43.8765 46.9009 43.7812 46.8798 43.6937 46.8389C43.6063 46.7981 43.529 46.7386 43.4671 46.6645C43.3551 46.5305 43.3009 46.3574 43.3164 46.1834C43.332 46.0093 43.4159 45.8486 43.5499 45.7365C45.7024 43.9369 47.5135 41.8041 48.933 39.3977C49.0229 39.2495 49.1676 39.1428 49.3356 39.1006C49.5037 39.0584 49.6816 39.0841 49.8309 39.1721C49.9801 39.2601 50.0887 39.4034 50.133 39.5709C50.1774 39.7385 50.1539 39.9167 50.0678 40.067C48.5718 42.6033 46.663 44.8509 44.3952 46.7473C44.2769 46.8465 44.1274 46.9009 43.973 46.9007Z" fill="white"/>
</g>
<defs>
<clipPath id="clip0_1631_86">
<rect width="70" height="69.6759" fill="white"/>
</clipPath>
</defs>
</svg>
