<svg width="36" height="70" viewBox="0 0 36 70" fill="none" xmlns="http://www.w3.org/2000/svg">
<g clip-path="url(#clip0_1631_105)">
<path d="M17.624 0.482422C18.1681 0.482422 18.6094 0.923564 18.6094 1.46777V34.6012C18.6094 35.1454 18.1681 35.5865 17.624 35.5865C17.0799 35.5865 16.6387 35.1454 16.6387 34.6012V1.46777C16.6387 0.923564 17.0799 0.482422 17.624 0.482422Z" fill="white"/>
<path d="M17.6251 36.0672C16.8163 36.0672 16.1582 35.409 16.1582 34.6003V1.46692C16.1582 0.658064 16.8163 0 17.6251 0C18.4339 0 19.092 0.658137 19.092 1.46692V34.6004C19.092 35.4091 18.4339 36.0672 17.6251 36.0672ZM17.6251 0.963155C17.3473 0.963155 17.1215 1.18913 17.1215 1.46692V34.6004C17.1215 34.8782 17.3474 35.104 17.6251 35.104C17.7587 35.1039 17.8867 35.0508 17.9811 34.9564C18.0756 34.862 18.1287 34.7339 18.1288 34.6004V1.46692C18.1287 1.33336 18.0756 1.20529 17.9812 1.11084C17.8868 1.01639 17.7587 0.963271 17.6251 0.963155Z" fill="black"/>
<path d="M4.57031 26.9961L7.59495 65.8845C7.59495 67.8917 9.13034 69.5188 11.0243 69.5188H25.9425C27.8364 69.5188 29.3718 67.8917 29.3718 65.8845L32.3964 26.9961H4.57031Z" fill="#DA9EC5"/>
<path d="M5.67393 17.0716C4.18738 19.361 3.32422 22.0923 3.32422 25.0252H32.5737C32.5737 16.9482 26.026 10.4004 17.949 10.4004C15.8522 10.4004 13.8586 10.8417 12.0557 11.6364" fill="#FBE7F0"/>
<path d="M33.0546 25.506H2.8418V25.0244C2.8418 22.0952 3.68116 19.2541 5.26917 16.8085C5.33982 16.7039 5.44872 16.6311 5.57244 16.606C5.69617 16.5808 5.82483 16.6052 5.93073 16.674C6.03663 16.7427 6.11131 16.8503 6.1387 16.9736C6.16608 17.0968 6.14398 17.2259 6.07716 17.333C4.67797 19.4878 3.89955 21.9712 3.8132 24.5427H32.0832C31.8281 16.9665 25.5855 10.8812 17.9482 10.8812C15.9656 10.8812 14.0483 11.2833 12.2491 12.0763C12.1913 12.1019 12.1289 12.1158 12.0657 12.1173C12.0024 12.1188 11.9395 12.1077 11.8805 12.0848C11.8215 12.0619 11.7677 12.0276 11.722 11.9839C11.6763 11.9401 11.6396 11.8878 11.6142 11.8298C11.5627 11.7129 11.5597 11.5804 11.606 11.4613C11.6522 11.3423 11.7438 11.2464 11.8607 11.1949C13.7829 10.3476 15.8311 9.91797 17.9482 9.91797C26.2779 9.91797 33.0546 16.6947 33.0546 25.0243V25.506Z" fill="black"/>
<path d="M9.62661 12.998C8.80701 13.5663 8.04735 14.2165 7.35938 14.9386Z" fill="#FBE7F0"/>
<path d="M7.35839 15.4194C7.26415 15.4193 7.172 15.3916 7.09335 15.3397C7.0147 15.2878 6.95299 15.214 6.91588 15.1274C6.87877 15.0408 6.86788 14.9452 6.88456 14.8524C6.90124 14.7597 6.94476 14.6738 7.00972 14.6056C7.72042 13.86 8.50498 13.1885 9.35134 12.6014C9.40332 12.5654 9.46189 12.5399 9.52371 12.5265C9.58552 12.5132 9.64937 12.5121 9.7116 12.5234C9.77383 12.5346 9.83323 12.5581 9.88641 12.5923C9.93958 12.6266 9.98549 12.6709 10.0215 12.7229C10.0575 12.7749 10.083 12.8335 10.0964 12.8953C10.1098 12.9571 10.1108 13.0209 10.0996 13.0832C10.0883 13.1454 10.0648 13.2048 10.0306 13.258C9.99636 13.3112 9.95198 13.3571 9.89999 13.3931C9.10732 13.9428 8.37257 14.5717 7.70705 15.27C7.66214 15.3173 7.60806 15.3549 7.54811 15.3806C7.48817 15.4063 7.42361 15.4195 7.35839 15.4194Z" fill="black"/>
<path d="M29.7216 26.959L26.6971 65.8474C26.6971 67.8546 25.1614 69.4817 23.2676 69.4817H25.9431C27.8369 69.4817 29.3726 67.8546 29.3726 65.8474L32.3971 26.959H29.7216Z" fill="#B687A7"/>
<path d="M4.98641 49.3361C4.73825 49.3361 4.5276 49.1456 4.5068 48.8939L2.65625 26.4414H33.2408L32.3095 37.7421C32.2877 38.0072 32.0599 38.2052 31.79 38.1826C31.6627 38.1721 31.5447 38.1115 31.4621 38.014C31.3795 37.9166 31.339 37.7904 31.3494 37.6631L32.1948 27.4046H3.70225L5.46696 48.8151C5.47239 48.8815 5.46399 48.9482 5.4423 49.0112C5.42061 49.0742 5.3861 49.132 5.34094 49.181C5.29578 49.2299 5.24096 49.269 5.17994 49.2957C5.11891 49.3224 5.05302 49.3362 4.98641 49.3361ZM25.8668 70.0002H10.0304C7.76435 70.0002 5.91956 68.162 5.9084 65.8984L5.1407 56.5828C5.13031 56.4555 5.17087 56.3293 5.25347 56.2318C5.33608 56.1344 5.45398 56.0738 5.58126 56.0633C5.64432 56.058 5.7078 56.0652 5.76807 56.0845C5.82833 56.1038 5.88419 56.1348 5.93245 56.1758C5.9807 56.2167 6.02041 56.2667 6.04928 56.323C6.07816 56.3794 6.09564 56.4408 6.10072 56.5039L6.87163 65.8782C6.87163 67.6199 8.2887 69.0369 10.0304 69.0369H25.8668C27.6084 69.0369 29.0255 67.6199 29.0255 65.8782L29.027 65.8386L31.0748 40.9938C31.0855 40.8665 31.1462 40.7487 31.2436 40.6662C31.341 40.5836 31.4671 40.543 31.5944 40.5533C31.6574 40.5585 31.7188 40.576 31.7751 40.6049C31.8313 40.6338 31.8813 40.6735 31.9222 40.7218C31.9631 40.77 31.9941 40.8258 32.0135 40.8861C32.0328 40.9463 32.0401 41.0097 32.0349 41.0727L29.9887 65.8984C29.9777 68.1621 28.1329 70.0002 25.8668 70.0002ZM5.4274 54.686C5.3066 54.6858 5.19025 54.6403 5.10141 54.5585C5.01258 54.4766 4.95775 54.3643 4.9478 54.2439L4.7119 51.3826C4.70148 51.2553 4.74203 51.129 4.82464 51.0316C4.90725 50.9342 5.02516 50.8736 5.15246 50.863C5.41864 50.8428 5.65016 51.0387 5.67199 51.3037L5.90796 54.1648C5.91337 54.2311 5.90497 54.2979 5.88328 54.3609C5.86158 54.4239 5.82707 54.4817 5.78192 54.5307C5.73676 54.5797 5.68195 54.6187 5.62093 54.6455C5.55991 54.6722 5.49402 54.686 5.4274 54.686Z" fill="black"/>
<path d="M35.5006 26.0107C35.5006 26.5549 35.0594 26.9961 34.5152 26.9961H1.38183C0.837699 26.9961 0.396484 26.5549 0.396484 26.0107C0.396484 25.4665 0.837626 25.0254 1.38183 25.0254H34.5153C35.0593 25.0254 35.5006 25.4666 35.5006 26.0107Z" fill="white"/>
<path d="M34.5159 27.3159H1.38252C0.662123 27.3159 0.0761719 26.7299 0.0761719 26.0095C0.0761719 25.2891 0.662123 24.7031 1.38252 24.7031H34.516C35.2364 24.7031 35.8223 25.2891 35.8223 26.0095C35.8223 26.7299 35.2363 27.3159 34.5159 27.3159ZM1.38252 25.3452C1.01634 25.3452 0.718252 25.6432 0.718252 26.0095C0.718252 26.3757 1.01626 26.6737 1.38252 26.6737H34.516C34.8822 26.6737 35.1803 26.3757 35.1803 26.0095C35.1803 25.6432 34.8822 25.3452 34.516 25.3452H1.38252Z" fill="black"/>
<path d="M13.1816 56.904C13.1816 57.0878 13.2547 57.264 13.3846 57.394C13.5146 57.524 13.6909 57.597 13.8747 57.597C14.0585 57.597 14.2347 57.524 14.3647 57.394C14.4947 57.264 14.5677 57.0878 14.5677 56.904C14.5677 56.7202 14.4947 56.5439 14.3647 56.4139C14.2347 56.284 14.0585 56.2109 13.8747 56.2109C13.6909 56.2109 13.5146 56.284 13.3846 56.4139C13.2547 56.5439 13.1816 56.7202 13.1816 56.904Z" fill="#E4AACC"/>
<path d="M15.209 54.9919C15.209 55.1757 15.282 55.3519 15.412 55.4819C15.5419 55.6119 15.7182 55.6849 15.902 55.6849C16.0858 55.6849 16.2621 55.6119 16.3921 55.4819C16.522 55.3519 16.595 55.1757 16.595 54.9919C16.595 54.8081 16.522 54.6318 16.3921 54.5018C16.2621 54.3718 16.0858 54.2988 15.902 54.2988C15.7182 54.2988 15.5419 54.3718 15.412 54.5018C15.282 54.6318 15.209 54.8081 15.209 54.9919Z" fill="#E4AACC"/>
<path d="M16.9043 53.4665C16.9043 53.6503 16.9773 53.8265 17.1073 53.9565C17.2372 54.0865 17.4135 54.1595 17.5973 54.1595C17.7811 54.1595 17.9574 54.0865 18.0874 53.9565C18.2173 53.8265 18.2903 53.6503 18.2903 53.4665C18.2903 53.2827 18.2173 53.1064 18.0874 52.9764C17.9574 52.8465 17.7811 52.7734 17.5973 52.7734C17.4135 52.7734 17.2372 52.8465 17.1073 52.9764C16.9773 53.1064 16.9043 53.2827 16.9043 53.4665Z" fill="#E4AACC"/>
<path d="M18.0793 50.2123C18.0793 50.5952 17.7691 50.9056 17.3865 50.9056C17.0036 50.9056 16.6934 50.5952 16.6934 50.2123C16.6934 49.8297 17.0036 49.5195 17.3865 49.5195C17.7691 49.5195 18.0793 49.8297 18.0793 50.2123Z" fill="#E4AACC"/>
<path d="M18.6953 51.6579C18.6953 51.8417 18.7683 52.0179 18.8983 52.1479C19.0283 52.2779 19.2045 52.3509 19.3883 52.3509C19.5721 52.3509 19.7484 52.2779 19.8784 52.1479C20.0084 52.0179 20.0814 51.8417 20.0814 51.6579C20.0814 51.4741 20.0084 51.2978 19.8784 51.1678C19.7484 51.0379 19.5721 50.9648 19.3883 50.9648C19.2045 50.9648 19.0283 51.0379 18.8983 51.1678C18.7683 51.2978 18.6953 51.4741 18.6953 51.6579Z" fill="#E4AACC"/>
<path d="M13.875 62.027C13.875 62.2108 13.948 62.3871 14.078 62.5171C14.2079 62.647 14.3842 62.72 14.568 62.72C14.7518 62.72 14.9281 62.647 15.0581 62.5171C15.188 62.3871 15.2611 62.2108 15.2611 62.027C15.2611 61.8432 15.188 61.6669 15.0581 61.537C14.9281 61.407 14.7518 61.334 14.568 61.334C14.3842 61.334 14.2079 61.407 14.078 61.537C13.948 61.6669 13.875 61.8432 13.875 62.027Z" fill="#E4AACC"/>
<path d="M16.9043 64.5036C16.9043 64.6874 16.9773 64.8636 17.1073 64.9936C17.2372 65.1236 17.4135 65.1966 17.5973 65.1966C17.7811 65.1966 17.9574 65.1236 18.0874 64.9936C18.2173 64.8636 18.2903 64.6874 18.2903 64.5036C18.2903 64.3198 18.2173 64.1435 18.0874 64.0135C17.9574 63.8836 17.7811 63.8105 17.5973 63.8105C17.4135 63.8105 17.2372 63.8836 17.1073 64.0135C16.9773 64.1435 16.9043 64.3198 16.9043 64.5036Z" fill="#E4AACC"/>
<path d="M21.9355 60.2907C21.9355 60.4745 22.0086 60.6508 22.1385 60.7807C22.2685 60.9107 22.4448 60.9837 22.6286 60.9837C22.8124 60.9837 22.9887 60.9107 23.1186 60.7807C23.2486 60.6508 23.3216 60.4745 23.3216 60.2907C23.3216 60.1069 23.2486 59.9306 23.1186 59.8006C22.9887 59.6707 22.8124 59.5977 22.6286 59.5977C22.4448 59.5977 22.2685 59.6707 22.1385 59.8006C22.0086 59.9306 21.9355 60.1069 21.9355 60.2907Z" fill="#E4AACC"/>
<path d="M19.5645 54.3004C19.5645 54.4842 19.6375 54.6605 19.7674 54.7905C19.8974 54.9205 20.0737 54.9935 20.2575 54.9935C20.4413 54.9935 20.6176 54.9205 20.7475 54.7905C20.8775 54.6605 20.9505 54.4842 20.9505 54.3004C20.9505 54.1166 20.8775 53.9404 20.7475 53.8104C20.6176 53.6804 20.4413 53.6074 20.2575 53.6074C20.0737 53.6074 19.8974 53.6804 19.7674 53.8104C19.6375 53.9404 19.5645 54.1166 19.5645 54.3004Z" fill="#E4AACC"/>
<path d="M17.3867 59.7282C17.3867 59.912 17.4597 60.0883 17.5897 60.2182C17.7197 60.3482 17.8959 60.4212 18.0797 60.4212C18.2635 60.4212 18.4398 60.3482 18.5698 60.2182C18.6998 60.0883 18.7728 59.912 18.7728 59.7282C18.7728 59.5444 18.6998 59.3681 18.5698 59.2381C18.4398 59.1082 18.2635 59.0352 18.0797 59.0352C17.8959 59.0352 17.7197 59.1082 17.5897 59.2381C17.4597 59.3681 17.3867 59.5444 17.3867 59.7282Z" fill="#E4AACC"/>
<path d="M15.2098 59.7289C15.2098 60.2891 14.7559 60.743 14.1958 60.743C13.6357 60.743 13.1816 60.2891 13.1816 59.7289C13.1816 59.169 13.6357 58.7148 14.1958 58.7148C14.7559 58.7149 15.2098 59.169 15.2098 59.7289Z" fill="#E4AACC"/>
<path d="M17.7578 57.5981C17.7578 57.867 17.8647 58.125 18.0548 58.3152C18.245 58.5053 18.503 58.6122 18.7719 58.6122C19.0409 58.6122 19.2988 58.5053 19.489 58.3152C19.6792 58.125 19.786 57.867 19.786 57.5981C19.786 57.3291 19.6792 57.0712 19.489 56.881C19.2988 56.6908 19.0409 56.584 18.7719 56.584C18.503 56.584 18.245 56.6908 18.0548 56.881C17.8647 57.0712 17.7578 57.3291 17.7578 57.5981Z" fill="#E4AACC"/>
<path d="M20.2578 58.6118C20.2578 58.8807 20.3647 59.1387 20.5548 59.3288C20.745 59.519 21.003 59.6259 21.2719 59.6259C21.5409 59.6259 21.7988 59.519 21.989 59.3288C22.1792 59.1387 22.286 58.8807 22.286 58.6118C22.286 58.3428 22.1792 58.0849 21.989 57.8947C21.7988 57.7045 21.5409 57.5977 21.2719 57.5977C21.003 57.5977 20.745 57.7045 20.5548 57.8947C20.3647 58.0849 20.2578 58.3428 20.2578 58.6118Z" fill="#E4AACC"/>
<path d="M15.5703 57.5981C15.5703 57.867 15.6772 58.125 15.8673 58.3152C16.0575 58.5053 16.3155 58.6122 16.5844 58.6122C16.8534 58.6122 17.1113 58.5053 17.3015 58.3152C17.4917 58.125 17.5985 57.867 17.5985 57.5981C17.5985 57.3291 17.4917 57.0712 17.3015 56.881C17.1113 56.6908 16.8534 56.584 16.5844 56.584C16.3155 56.584 16.0575 56.6908 15.8673 56.881C15.6772 57.0712 15.5703 57.3291 15.5703 57.5981Z" fill="#E4AACC"/>
<path d="M18.8984 60.2895C18.8984 60.5584 19.0053 60.8164 19.1955 61.0066C19.3856 61.1968 19.6436 61.3036 19.9125 61.3036C20.1815 61.3036 20.4394 61.1968 20.6296 61.0066C20.8198 60.8164 20.9266 60.5584 20.9266 60.2895C20.9266 60.0205 20.8198 59.7626 20.6296 59.5724C20.4394 59.3822 20.1815 59.2754 19.9125 59.2754C19.6436 59.2754 19.3856 59.3822 19.1955 59.5724C19.0053 59.7626 18.8984 60.0205 18.8984 60.2895Z" fill="#E4AACC"/>
<path d="M13.9941 65.7187C13.9941 65.8782 14.0256 66.0361 14.0866 66.1835C14.1477 66.3309 14.2371 66.4648 14.3499 66.5776C14.4627 66.6904 14.5966 66.7799 14.744 66.8409C14.8914 66.902 15.0494 66.9334 15.2089 66.9334C15.3684 66.9334 15.5264 66.902 15.6737 66.8409C15.8211 66.7799 15.955 66.6904 16.0678 66.5776C16.1806 66.4648 16.2701 66.3309 16.3312 66.1835C16.3922 66.0361 16.4236 65.8782 16.4236 65.7187C16.4236 65.5591 16.3922 65.4012 16.3312 65.2538C16.2701 65.1064 16.1806 64.9725 16.0678 64.8597C15.955 64.7469 15.8211 64.6574 15.6737 64.5964C15.5264 64.5353 15.3684 64.5039 15.2089 64.5039C15.0494 64.5039 14.8914 64.5353 14.744 64.5964C14.5966 64.6574 14.4627 64.7469 14.3499 64.8597C14.2371 64.9725 14.1477 65.1064 14.0866 65.2538C14.0256 65.4012 13.9941 65.5591 13.9941 65.7187Z" fill="#E4AACC"/>
<path d="M15.9824 61.957C15.9824 62.2792 16.1104 62.5882 16.3382 62.816C16.5661 63.0438 16.8751 63.1718 17.1972 63.1718C17.5194 63.1718 17.8284 63.0438 18.0562 62.816C18.2841 62.5882 18.4121 62.2792 18.4121 61.957C18.4121 61.6348 18.2841 61.3258 18.0562 61.098C17.8284 60.8702 17.5194 60.7422 17.1972 60.7422C16.8751 60.7422 16.5661 60.8702 16.3382 61.098C16.1104 61.3258 15.9824 61.6348 15.9824 61.957Z" fill="#E4AACC"/>
<path d="M17.1973 66.3541C17.1973 66.7143 17.3403 67.0597 17.595 67.3144C17.8497 67.5691 18.1951 67.7121 18.5553 67.7121C18.9155 67.7121 19.2609 67.5691 19.5156 67.3144C19.7702 67.0597 19.9133 66.7143 19.9133 66.3541C19.9133 65.9939 19.7702 65.6485 19.5156 65.3938C19.2609 65.1392 18.9155 64.9961 18.5553 64.9961C18.1951 64.9961 17.8497 65.1392 17.595 65.3938C17.3403 65.6485 17.1973 65.9939 17.1973 66.3541Z" fill="#E4AACC"/>
<path d="M19.9141 63.1705C19.9141 63.5307 20.0571 63.8761 20.3118 64.1308C20.5665 64.3855 20.9119 64.5285 21.2721 64.5285C21.6323 64.5285 21.9777 64.3855 22.2324 64.1308C22.487 63.8761 22.6301 63.5307 22.6301 63.1705C22.6301 62.8104 22.487 62.4649 22.2324 62.2103C21.9777 61.9556 21.6323 61.8125 21.2721 61.8125C20.9119 61.8125 20.5665 61.9556 20.3118 62.2103C20.0571 62.4649 19.9141 62.8104 19.9141 63.1705Z" fill="#E4AACC"/>
<path d="M23.6113 58.8266C23.6113 59.0956 23.7182 59.3535 23.9084 59.5437C24.0985 59.7339 24.3565 59.8407 24.6254 59.8407C24.8944 59.8407 25.1523 59.7339 25.3425 59.5437C25.5327 59.3535 25.6395 59.0956 25.6395 58.8266C25.6395 58.5576 25.5327 58.2997 25.3425 58.1095C25.1523 57.9193 24.8944 57.8125 24.6254 57.8125C24.3565 57.8125 24.0985 57.9193 23.9084 58.1095C23.7182 58.2997 23.6113 58.5576 23.6113 58.8266Z" fill="#E4AACC"/>
<path d="M23.2668 66.5689C23.2668 67.3191 22.6588 67.9271 21.9089 67.9271C21.1587 67.9271 20.5508 67.3191 20.5508 66.5689C20.5508 65.8191 21.1587 65.2109 21.9089 65.2109C22.6588 65.2109 23.2668 65.8191 23.2668 66.5689Z" fill="#E4AACC"/>
<path d="M23.2676 63.3854C23.2676 63.7455 23.4107 64.091 23.6653 64.3456C23.92 64.6003 24.2654 64.7434 24.6256 64.7434C24.9858 64.7434 25.3312 64.6003 25.5859 64.3456C25.8405 64.091 25.9836 63.7455 25.9836 63.3854C25.9836 63.0252 25.8405 62.6798 25.5859 62.4251C25.3312 62.1704 24.9858 62.0273 24.6256 62.0273C24.2654 62.0273 23.92 62.1704 23.6653 62.4251C23.4107 62.6798 23.2676 63.0252 23.2676 63.3854Z" fill="#E4AACC"/>
<path d="M10.8086 59.477C10.8086 59.746 10.9154 60.0039 11.1056 60.1941C11.2958 60.3843 11.5537 60.4911 11.8227 60.4911C12.0917 60.4911 12.3496 60.3843 12.5398 60.1941C12.73 60.0039 12.8368 59.746 12.8368 59.477C12.8368 59.208 12.73 58.9501 12.5398 58.7599C12.3496 58.5697 12.0917 58.4629 11.8227 58.4629C11.5537 58.4629 11.2958 58.5697 11.1056 58.7599C10.9154 58.9501 10.8086 59.208 10.8086 59.477Z" fill="#E4AACC"/>
<path d="M10.4648 66.2057C10.4648 66.5658 10.6079 66.9113 10.8626 67.1659C11.1173 67.4206 11.4627 67.5637 11.8229 67.5637C12.183 67.5637 12.5285 67.4206 12.7831 67.1659C13.0378 66.9113 13.1809 66.5658 13.1809 66.2057C13.1809 65.8455 13.0378 65.5001 12.7831 65.2454C12.5285 64.9907 12.183 64.8477 11.8229 64.8477C11.4627 64.8477 11.1173 64.9907 10.8626 65.2454C10.6079 65.5001 10.4648 65.8455 10.4648 66.2057Z" fill="#E4AACC"/>
<path d="M10.1699 62.5065C10.1699 62.8666 10.313 63.212 10.5677 63.4667C10.8224 63.7214 11.1678 63.8645 11.5279 63.8645C11.8881 63.8645 12.2335 63.7214 12.4882 63.4667C12.7429 63.212 12.886 62.8666 12.886 62.5065C12.886 62.1463 12.7429 61.8009 12.4882 61.5462C12.2335 61.2915 11.8881 61.1484 11.5279 61.1484C11.1678 61.1484 10.8224 61.2915 10.5677 61.5462C10.313 61.8009 10.1699 62.1463 10.1699 62.5065Z" fill="#E4AACC"/>
<path d="M20.5508 44.9023C20.5508 45.0442 20.5887 45.1803 20.6563 45.2806C20.7238 45.381 20.8155 45.4373 20.911 45.4373C21.0065 45.4373 21.0981 45.381 21.1657 45.2806C21.2332 45.1803 21.2712 45.0442 21.2712 44.9023C21.2712 44.7604 21.2332 44.6243 21.1657 44.5239C21.0981 44.4236 21.0065 44.3672 20.911 44.3672C20.8155 44.3672 20.7238 44.4236 20.6563 44.5239C20.5887 44.6243 20.5508 44.7604 20.5508 44.9023Z" fill="#E4AACC"/>
</g>
<defs>
<clipPath id="clip0_1631_105">
<rect width="35.875" height="70" fill="white"/>
</clipPath>
</defs>
</svg>
